<svg width="128" height="128" viewBox="0 0 128 128" fill="none" xmlns="http://www.w3.org/2000/svg">
<path fill-rule="evenodd" clip-rule="evenodd" d="M56.5341 11.1865C58.8125 9.90288 61.3835 9.22852 63.9986 9.22852C66.6138 9.22852 69.1847 9.90288 71.4632 11.1865C73.7416 12.4701 75.6506 14.3195 77.0057 16.5562L77.0189 16.5782L120.251 88.7702C120.265 88.7938 120.279 88.8175 120.293 88.8413C121.619 91.1404 122.32 93.7465 122.326 96.4005C122.333 99.0545 121.645 101.664 120.33 103.97C119.016 106.275 117.121 108.197 114.834 109.544C112.547 110.89 109.947 111.615 107.294 111.645C107.274 111.646 107.255 111.646 107.236 111.646H20.7613C20.7527 111.646 20.7441 111.646 20.7356 111.646C20.7254 111.646 20.7153 111.645 20.7051 111.645C18.0501 111.616 15.4492 110.891 13.161 109.544C10.8729 108.197 8.97723 106.275 7.66267 103.968C6.34811 101.661 5.66043 99.0499 5.66803 96.3948C5.67563 93.7396 6.37825 91.1327 7.70601 88.8334C7.71931 88.8103 7.7328 88.7874 7.74648 88.7646L50.8958 16.7213C50.9266 16.6657 50.9585 16.6107 50.9916 16.5562C52.3467 14.3195 54.2556 12.4701 56.5341 11.1865ZM63.9986 19.2285C63.1031 19.2285 62.2226 19.4595 61.4424 19.899C60.696 20.3195 60.0653 20.9173 59.6058 21.6389C59.59 21.6666 59.5738 21.6941 59.5574 21.7215L16.3493 93.8629C15.9054 94.6432 15.6706 95.5253 15.668 96.4234C15.6654 97.3327 15.9009 98.2268 16.3511 99.0168C16.8012 99.8068 17.4504 100.465 18.234 100.926C19.0107 101.384 19.8928 101.631 20.7937 101.646H107.202C108.103 101.631 108.984 101.383 109.761 100.926C110.544 100.465 111.193 99.8071 111.643 99.0175C112.093 98.2279 112.328 97.3343 112.326 96.4254C112.324 95.528 112.09 94.6467 111.647 93.8667L68.4529 21.7379L68.4473 21.7287C67.9836 20.9669 67.332 20.3368 66.5549 19.899C65.7746 19.4595 64.8942 19.2285 63.9986 19.2285ZM64 43C66.7614 43 69 45.2386 69 48V69.3333C69 72.0948 66.7614 74.3333 64 74.3333C61.2386 74.3333 59 72.0948 59 69.3333V48C59 45.2386 61.2386 43 64 43ZM64 80.334C61.2386 80.334 59 82.5726 59 85.334C59 88.0954 61.2386 90.334 64 90.334H64.0533C66.8148 90.334 69.0533 88.0954 69.0533 85.334C69.0533 82.5726 66.8148 80.334 64.0533 80.334H64Z" fill="black"/>
</svg>
