<svg width="48" height="48" viewBox="0 0 48 48" fill="none" xmlns="http://www.w3.org/2000/svg">
<path fill-rule="evenodd" clip-rule="evenodd" d="M21.1384 4.08626C22.0116 3.59437 22.9968 3.33594 23.999 3.33594C25.0012 3.33594 25.9864 3.59437 26.8596 4.08626C27.7327 4.57816 28.4643 5.2869 28.9835 6.14404L28.9889 6.15283L28.9889 6.15284L45.2009 33.2248L45.2176 33.2533C45.7256 34.1344 45.9943 35.1331 45.9968 36.1501C45.9994 37.1672 45.7357 38.1672 45.232 39.0508C44.7283 39.9344 44.0022 40.6708 43.1257 41.1868C42.2493 41.7028 41.2531 41.9805 40.2361 41.9922L40.213 41.9924H7.78499L7.76253 41.9923C6.74508 41.9808 5.74835 41.7032 4.87148 41.187C3.99462 40.6708 3.26817 39.9341 2.76441 39.05C2.26064 38.166 1.99711 37.1654 2.00002 36.1479C2.00294 35.1304 2.2722 34.1314 2.78102 33.2503L2.7972 33.2227L18.9771 6.20827C18.9892 6.18666 19.0016 6.16524 19.0144 6.14404C19.5337 5.2869 20.2653 4.57816 21.1384 4.08626ZM23.999 7.33594C23.6847 7.33594 23.3756 7.417 23.1018 7.57128C22.8406 7.71842 22.6198 7.92742 22.4586 8.17966C22.4528 8.18983 22.4468 8.19995 22.4408 8.21003L6.23848 35.2618C6.08309 35.5354 6.00091 35.8446 6.00001 36.1594C5.99909 36.4785 6.08175 36.7924 6.23976 37.0697C6.39778 37.3469 6.62563 37.578 6.90066 37.7399C7.17307 37.9003 7.48235 37.9872 7.7983 37.9924H40.1994C40.5151 37.9871 40.8241 37.9001 41.0963 37.7399C41.3712 37.578 41.599 37.3471 41.7569 37.0699C41.9149 36.7928 41.9976 36.4791 41.9968 36.1601C41.9961 35.8456 41.9141 35.5366 41.7591 35.2631L25.5624 8.21672L25.5602 8.21308C25.3975 7.94587 25.1689 7.72487 24.8962 7.57128C24.6224 7.417 24.3133 7.33594 23.999 7.33594ZM24 16C25.1046 16 26 16.8954 26 18V26C26 27.1046 25.1046 28 24 28C22.8954 28 22 27.1046 22 26V18C22 16.8954 22.8954 16 24 16ZM24 30C22.8954 30 22 30.8954 22 32C22 33.1046 22.8954 34 24 34H24.02C25.1246 34 26.02 33.1046 26.02 32C26.02 30.8954 25.1246 30 24.02 30H24Z" fill="black"/>
</svg>
